<?xml version="1.0" encoding="utf-8"?>
<!-- Generator: Adobe Illustrator 23.0.6, SVG Export Plug-In . SVG Version: 6.00 Build 0)  -->
<svg version="1.1" id="Capa_1" xmlns="http://www.w3.org/2000/svg" xmlns:xlink="http://www.w3.org/1999/xlink" x="0px" y="0px"
	 viewBox="0 0 45.5 40.4" style="enable-background:new 0 0 45.5 40.4;" xml:space="preserve">
<style type="text/css">
	.st0{fill:#5E579D;}
	.st1{opacity:0.8;}
	.st2{opacity:0.5;}
	.st3{opacity:0.4;}
	.st4{opacity:0.2;}
	.st5{opacity:0.1;}
	.st6{fill:#5E579D;stroke:#5E579D;stroke-width:0.5;stroke-miterlimit:10;}
</style>
<g id="XMLID_402_">
	<g id="XMLID_403_">
		<path id="XMLID_404_" class="st0" d="M19.5,4.1L19.5,4.1l-0.6,22.5L12,19.3c-0.3-0.4-0.8-0.6-1.3-0.6c-0.5,0-1,0.2-1.3,0.5
			l-1.1,1.1c-0.4,0.3-0.6,0.8-0.6,1.3c0,0.5,0.2,1,0.5,1.3L20,35.4c0.3,0.4,0.8,0.6,1.3,0.6c0.5,0,1-0.2,1.3-0.5l12.5-11.9
			c0.4-0.3,0.6-0.8,0.6-1.3c0-0.5-0.2-1-0.5-1.3l-1.1-1.1c-0.3-0.4-0.8-0.6-1.3-0.6c-0.5,0-0.9,0.2-1.3,0.5l-7.3,7l0.6-22.6
			c0-1-0.8-1.9-1.8-1.9l-1.6,0C20.3,2.2,19.5,3.1,19.5,4.1z"/>
	</g>
</g>
</svg>
